<svg width="16" height="17" viewBox="0 0 16 17" fill="none" xmlns="http://www.w3.org/2000/svg">
<g clip-path="url(#clip0_29_1090)">
<path d="M12.4375 1.11999L4.30951 9.24799C3.99907 9.55676 3.75296 9.92403 3.58543 10.3286C3.4179 10.7331 3.33227 11.1668 3.33351 11.6047V12.5C3.33351 12.6768 3.40375 12.8464 3.52877 12.9714C3.6538 13.0964 3.82336 13.1667 4.00018 13.1667H4.89551C5.33335 13.1679 5.76709 13.0823 6.17161 12.9147C6.57614 12.7472 6.94341 12.5011 7.25218 12.1907L15.3802 4.06266C15.7698 3.67211 15.9886 3.14298 15.9886 2.59133C15.9886 2.03968 15.7698 1.51055 15.3802 1.11999C14.984 0.741255 14.457 0.529892 13.9088 0.529892C13.3607 0.529892 12.8337 0.741255 12.4375 1.11999ZM14.4375 3.11999L6.30951 11.248C5.93359 11.6216 5.42551 11.8319 4.89551 11.8333H4.66684V11.6047C4.66823 11.0747 4.87855 10.5666 5.25218 10.1907L13.3802 2.06266C13.5226 1.92663 13.7119 1.85072 13.9088 1.85072C14.1058 1.85072 14.2951 1.92663 14.4375 2.06266C14.5775 2.203 14.6561 2.39312 14.6561 2.59133C14.6561 2.78953 14.5775 2.97965 14.4375 3.11999Z" fill="white"/>
<path d="M15.3333 6.486C15.1565 6.486 14.987 6.55624 14.8619 6.68126C14.7369 6.80629 14.6667 6.97586 14.6667 7.15267V10.5H12C11.4696 10.5 10.9609 10.7107 10.5858 11.0858C10.2107 11.4609 10 11.9696 10 12.5V15.1667H3.33333C2.8029 15.1667 2.29419 14.956 1.91912 14.5809C1.54405 14.2058 1.33333 13.6971 1.33333 13.1667V3.83333C1.33333 3.3029 1.54405 2.79419 1.91912 2.41912C2.29419 2.04405 2.8029 1.83333 3.33333 1.83333H9.36133C9.53815 1.83333 9.70771 1.7631 9.83274 1.63807C9.95776 1.51305 10.028 1.34348 10.028 1.16667C10.028 0.989856 9.95776 0.820286 9.83274 0.695262C9.70771 0.570238 9.53815 0.5 9.36133 0.5H3.33333C2.4496 0.501059 1.60237 0.852588 0.97748 1.47748C0.352588 2.10237 0.00105857 2.9496 0 3.83333L0 13.1667C0.00105857 14.0504 0.352588 14.8976 0.97748 15.5225C1.60237 16.1474 2.4496 16.4989 3.33333 16.5H10.8953C11.3333 16.5013 11.7671 16.4156 12.1718 16.2481C12.5764 16.0806 12.9438 15.8345 13.2527 15.524L15.0233 13.752C15.3338 13.4432 15.58 13.076 15.7477 12.6715C15.9153 12.267 16.0011 11.8332 16 11.3953V7.15267C16 6.97586 15.9298 6.80629 15.8047 6.68126C15.6797 6.55624 15.5101 6.486 15.3333 6.486ZM12.31 14.5813C12.042 14.8487 11.7031 15.0337 11.3333 15.1147V12.5C11.3333 12.3232 11.4036 12.1536 11.5286 12.0286C11.6536 11.9036 11.8232 11.8333 12 11.8333H14.6167C14.5342 12.2023 14.3493 12.5406 14.0833 12.8093L12.31 14.5813Z" fill="white"/>
</g>
<defs>
<clipPath id="clip0_29_1090">
<rect width="16" height="16" fill="white" transform="translate(0 0.5)"/>
</clipPath>
</defs>
</svg>
