<svg width="25" height="24" viewBox="0 0 25 24" fill="none" xmlns="http://www.w3.org/2000/svg">
<g clip-path="url(#clip0_29_1128)">
<path d="M12.9077 0C10.5343 0 8.21427 0.703788 6.24088 2.02236C4.26749 3.34094 2.72942 5.21509 1.82117 7.4078C0.912914 9.60051 0.675274 12.0133 1.1383 14.3411C1.60132 16.6689 2.74421 18.8071 4.42244 20.4853C6.10067 22.1635 8.23886 23.3064 10.5666 23.7694C12.8944 24.2324 15.3072 23.9948 17.4999 23.0866C19.6926 22.1783 21.5668 20.6402 22.8854 18.6668C24.2039 16.6935 24.9077 14.3734 24.9077 12C24.9043 8.81846 23.6389 5.76821 21.3892 3.51852C19.1395 1.26883 16.0893 0.00344108 12.9077 0ZM12.9077 20C12.7099 20 12.5166 19.9414 12.3521 19.8315C12.1877 19.7216 12.0595 19.5654 11.9838 19.3827C11.9082 19.2 11.8883 18.9989 11.9269 18.8049C11.9655 18.6109 12.0608 18.4327 12.2006 18.2929C12.3405 18.153 12.5186 18.0578 12.7126 18.0192C12.9066 17.9806 13.1077 18.0004 13.2904 18.0761C13.4731 18.1518 13.6293 18.28 13.7392 18.4444C13.8491 18.6089 13.9077 18.8022 13.9077 19C13.9077 19.2652 13.8024 19.5196 13.6148 19.7071C13.4273 19.8946 13.1729 20 12.9077 20ZM14.8377 12.506C14.5426 12.6905 14.3013 12.9495 14.138 13.2569C13.9748 13.5642 13.8953 13.9092 13.9077 14.257V15C13.9077 15.2652 13.8024 15.5196 13.6148 15.7071C13.4273 15.8946 13.1729 16 12.9077 16C12.6425 16 12.3882 15.8946 12.2006 15.7071C12.0131 15.5196 11.9077 15.2652 11.9077 15V14.257C11.8929 13.5514 12.0673 12.8548 12.4126 12.2393C12.758 11.6238 13.2618 11.112 13.8717 10.757C14.2412 10.5535 14.5369 10.2384 14.7165 9.85674C14.8961 9.47508 14.9504 9.0464 14.8717 8.632C14.7938 8.2372 14.6 7.87459 14.315 7.59049C14.03 7.30639 13.6668 7.11369 13.2717 7.037C12.9834 6.98364 12.687 6.99431 12.4033 7.06826C12.1196 7.14221 11.8556 7.27762 11.63 7.46492C11.4045 7.65221 11.2229 7.8868 11.098 8.15207C10.9732 8.41735 10.9082 8.70683 10.9077 9C10.9077 9.26522 10.8024 9.51957 10.6148 9.70711C10.4273 9.89464 10.1729 10 9.90772 10C9.6425 10 9.38815 9.89464 9.20061 9.70711C9.01308 9.51957 8.90772 9.26522 8.90772 9C8.90797 8.29451 9.09481 7.60163 9.44928 6.99165C9.80374 6.38167 10.3132 5.8763 10.9261 5.52679C11.5389 5.17728 12.2333 4.99607 12.9387 5.00154C13.6442 5.00701 14.3357 5.19897 14.943 5.55794C15.5504 5.91692 16.052 6.43013 16.3969 7.04554C16.7419 7.66094 16.918 8.35663 16.9073 9.06205C16.8966 9.76746 16.6995 10.4575 16.336 11.0622C15.9726 11.6668 15.4557 12.1656 14.8377 12.506Z" fill="#6996FF"/>
</g>
<defs>
<clipPath id="clip0_29_1128">
<rect width="24" height="24" fill="white" transform="translate(0.907715)"/>
</clipPath>
</defs>
</svg>
