<svg width="25" height="24" viewBox="0 0 25 24" fill="none" xmlns="http://www.w3.org/2000/svg">
<path d="M12.9077 2C18.4305 2 22.9077 6.47715 22.9077 12C22.9077 17.5228 18.4305 22 12.9077 22C7.38486 22 2.90771 17.5228 2.90771 12C2.90771 6.47715 7.38486 2 12.9077 2ZM16.912 12.8777C16.5666 12.3533 16.3174 11.9746 15.3699 12.1248C13.5794 12.409 13.3809 12.7224 13.2954 13.2375L13.2713 13.3943L13.247 13.5597C13.1493 14.2428 13.153 14.5012 13.4666 14.8308C14.7318 16.1582 15.4897 17.115 15.7193 17.6746C15.8314 17.9484 16.1196 18.7751 15.9213 19.5927C17.1449 19.1066 18.2233 18.3332 19.073 17.3559C19.1832 16.9821 19.2628 16.5166 19.2628 15.9518V15.8472C19.2628 14.9247 19.2628 14.504 18.6108 14.1314C18.3357 13.9751 18.1304 13.881 17.9659 13.8064C17.5987 13.6394 17.3556 13.5297 17.0275 13.0499C16.9884 12.9928 16.9502 12.9358 16.912 12.8777ZM12.9077 3.83333C10.5903 3.83333 8.49833 4.79858 7.01191 6.34896C7.18887 6.47186 7.34308 6.64453 7.449 6.88256C7.653 7.34029 7.653 7.8112 7.653 8.22764C7.65259 8.55621 7.65213 8.8672 7.75763 9.09302C7.90214 9.40134 8.52411 9.53227 9.07319 9.64736C9.26937 9.68867 9.47166 9.73083 9.65568 9.78176C10.1618 9.92233 10.5533 10.3765 10.8671 10.7412C10.9973 10.8931 11.1896 11.1163 11.286 11.1717C11.3363 11.1356 11.4977 10.9608 11.5776 10.6735C11.6384 10.4547 11.6211 10.2597 11.5316 10.1543C10.9725 9.49445 11.0029 8.2232 11.1757 7.75495C11.4479 7.01606 12.2982 7.07058 12.9197 7.11097C13.1515 7.12589 13.3703 7.14023 13.5334 7.11976C14.1559 7.04166 14.3473 6.09538 14.4827 5.91C14.7748 5.50981 15.6684 4.9071 16.2235 4.53454C15.2102 4.08382 14.0882 3.83333 12.9077 3.83333Z" fill="#6996FF"/>
</svg>
