<svg width="22" height="22" viewBox="0 0 22 22" fill="none" xmlns="http://www.w3.org/2000/svg">
<g clip-path="url(#clip0_125_753)">
<path fill-rule="evenodd" clip-rule="evenodd" d="M10.5505 15.8244C10.7183 15.8244 10.8861 15.8645 11.0391 15.9436L15.0158 18.0222L14.2593 13.6361C14.1991 13.2921 14.3141 12.9418 14.5652 12.6981L17.7686 9.60027L13.3339 8.95454C12.991 8.90495 12.6945 8.69076 12.5405 8.38056L10.5505 4.37746L8.5606 8.38056C8.40655 8.69076 8.11007 8.90495 7.76716 8.95454L3.33252 9.60027L6.53584 12.6981C6.78696 12.9418 6.90196 13.2921 6.84182 13.6361L6.08531 18.0222L10.062 15.9436C10.215 15.8645 10.3828 15.8244 10.5505 15.8244M16.4192 20.9997C16.2514 20.9997 16.0837 20.9606 15.9307 20.8804L10.5506 18.0696L5.17063 20.8804C4.814 21.0661 4.38351 21.0334 4.0617 20.7971C3.73673 20.5607 3.5753 20.1608 3.64282 19.7652L4.66839 13.827L0.321331 9.62238C0.0311752 9.34277 -0.0722258 8.92284 0.0512223 8.53983C0.173615 8.15683 0.504921 7.87828 0.902698 7.82025L6.91789 6.94661L9.60526 1.53811C9.96189 0.820631 11.1394 0.820631 11.496 1.53811L14.1834 6.94661L20.1986 7.82025C20.5964 7.87828 20.9277 8.15683 21.0501 8.53983C21.1735 8.92284 21.0701 9.34277 20.78 9.62238L16.4329 13.827L17.4585 19.7652C17.526 20.1608 17.3646 20.5607 17.0396 20.7971C16.857 20.9321 16.6386 20.9997 16.4192 20.9997Z" fill="#6996FF"/>
</g>
<defs>
<clipPath id="clip0_125_753">
<rect width="22" height="22" fill="white"/>
</clipPath>
</defs>
</svg>
