<svg width="25" height="24" viewBox="0 0 25 24" fill="none" xmlns="http://www.w3.org/2000/svg">
<g clip-path="url(#clip0_29_1135)">
<path d="M12.0142 24C14.3875 24 16.7076 23.2962 18.681 21.9776C20.6544 20.6591 22.1925 18.7849 23.1007 16.5922C24.009 14.3995 24.2466 11.9867 23.7836 9.65892C23.3206 7.33115 22.1777 5.19295 20.4994 3.51472C18.8212 1.83649 16.683 0.693605 14.3552 0.230582C12.0275 -0.232441 9.61467 0.00519943 7.42196 0.913451C5.22925 1.8217 3.3551 3.35977 2.03653 5.33316C0.717948 7.30655 0.0141602 9.62663 0.0141602 12C0.0176012 15.1815 1.28299 18.2318 3.53268 20.4815C5.78237 22.7312 8.83262 23.9966 12.0142 24ZM12.0142 5.00001C12.3108 5.00001 12.6008 5.08798 12.8475 5.2528C13.0942 5.41762 13.2864 5.65189 13.4 5.92598C13.5135 6.20007 13.5432 6.50167 13.4853 6.79264C13.4275 7.08361 13.2846 7.35089 13.0748 7.56067C12.865 7.77044 12.5978 7.91331 12.3068 7.97118C12.0158 8.02906 11.7142 7.99936 11.4401 7.88582C11.166 7.77229 10.9318 7.58003 10.767 7.33336C10.6021 7.08669 10.5142 6.79668 10.5142 6.50001C10.5142 6.10218 10.6722 5.72065 10.9535 5.43934C11.2348 5.15804 11.6163 5.00001 12.0142 5.00001ZM11.0142 10H12.0142C12.5446 10 13.0533 10.2107 13.4284 10.5858C13.8034 10.9609 14.0142 11.4696 14.0142 12V18C14.0142 18.2652 13.9088 18.5196 13.7213 18.7071C13.5337 18.8946 13.2794 19 13.0142 19C12.7489 19 12.4946 18.8946 12.3071 18.7071C12.1195 18.5196 12.0142 18.2652 12.0142 18V12H11.0142C10.7489 12 10.4946 11.8946 10.3071 11.7071C10.1195 11.5196 10.0142 11.2652 10.0142 11C10.0142 10.7348 10.1195 10.4804 10.3071 10.2929C10.4946 10.1054 10.7489 10 11.0142 10Z" fill="#6996FF"/>
</g>
<defs>
<clipPath id="clip0_29_1135">
<rect width="24" height="24" fill="white" transform="translate(0.0141602)"/>
</clipPath>
</defs>
</svg>
