<svg width="800" height="800" viewBox="0 0 800 800" fill="none" xmlns="http://www.w3.org/2000/svg">
<path d="M566.667 333.333H633.333C700 333.333 733.333 300 733.333 233.333V166.667C733.333 100 700 66.6666 633.333 66.6666H566.667C500 66.6666 466.667 100 466.667 166.667V233.333C466.667 300 500 333.333 566.667 333.333Z" stroke="#5185FE" stroke-width="50" stroke-miterlimit="10" stroke-linecap="round" stroke-linejoin="round"/>
<path d="M166.667 733.333H233.333C300 733.333 333.333 700 333.333 633.333V566.667C333.333 500 300 466.667 233.333 466.667H166.667C100 466.667 66.6666 500 66.6666 566.667V633.333C66.6666 700 100 733.333 166.667 733.333Z" stroke="#5185FE" stroke-width="50" stroke-miterlimit="10" stroke-linecap="round" stroke-linejoin="round"/>
<path d="M200 333.333C273.638 333.333 333.333 273.638 333.333 200C333.333 126.362 273.638 66.6666 200 66.6666C126.362 66.6666 66.6666 126.362 66.6666 200C66.6666 273.638 126.362 333.333 200 333.333Z" stroke="#5185FE" stroke-width="50" stroke-miterlimit="10" stroke-linecap="round" stroke-linejoin="round"/>
<path d="M600 733.333C673.637 733.333 733.333 673.637 733.333 600C733.333 526.363 673.637 466.667 600 466.667C526.363 466.667 466.667 526.363 466.667 600C466.667 673.637 526.363 733.333 600 733.333Z" stroke="#5185FE" stroke-width="50" stroke-miterlimit="10" stroke-linecap="round" stroke-linejoin="round"/>
</svg>
